<svg width="288" height="263" viewBox="0 0 288 263" fill="none" xmlns="http://www.w3.org/2000/svg">
<g filter="url(#filter0_d_19_2)">
<path d="M168 133L137 126L129.5 157.5L128 159H125.5L124 157.5L121.5 156.5L118.5 154.5L116 153.5L112 152.5H108.5L105 153.5L101.5 154.5L99 155.5L96 157.5L93.5 160L91 163L88.5 166.5L87.5 170L87 173.5V176.5L87.5 179.5L88.5 182.5L89.5 185.5L91 187.5L93 190.5L95.5 192.5L97.5 194L100.5 195.5L103.5 196.5H117L118.5 198V199.5V201L110.5 231L203.5 254H207H210L212.5 253L215 251.5L216.5 249L217.5 246L242 151.5L223.5 146.5L223 147.5L222 149.5L220 151.5L217 153.5L214.5 154.5L212 155.5L209 156.5L207 157V159.5L206 162L204.5 165L202 167.5L199.5 169L196.5 171.5L193 173.5L189.5 175H185.5H182L177.5 173.5L173.5 171.5L170 169L168 166.5L165.5 163L164.5 159.5L163.5 155.5V151V148L164.5 144.5L165.5 141.5L167 139L168 137.5L169 136V134.5L168 133Z" fill="#806AE4"/>
<path d="M168 133L137 126L129.5 157.5L128 159H125.5L124 157.5L121.5 156.5L118.5 154.5L116 153.5L112 152.5H108.5L105 153.5L101.5 154.5L99 155.5L96 157.5L93.5 160L91 163L88.5 166.5L87.5 170L87 173.5V176.5L87.5 179.5L88.5 182.5L89.5 185.5L91 187.5L93 190.5L95.5 192.5L97.5 194L100.5 195.5L103.5 196.5H117L118.5 198V199.5V201L110.5 231L203.5 254H207H210L212.5 253L215 251.5L216.5 249L217.5 246L242 151.5L223.5 146.5L223 147.5L222 149.5L220 151.5L217 153.5L214.5 154.5L212 155.5L209 156.5L207 157V159.5L206 162L204.5 165L202 167.5L199.5 169L196.5 171.5L193 173.5L189.5 175H185.5H182L177.5 173.5L173.5 171.5L170 169L168 166.5L165.5 163L164.5 159.5L163.5 155.5V151V148L164.5 144.5L165.5 141.5L167 139L168 137.5L169 136V134.5L168 133Z" stroke="#0B3D91" stroke-width="2"/>
</g>
<g filter="url(#filter1_d_19_2)">
<path d="M62.5 2L162.5 27.5L160.5 37H158.5L154.5 35.5H150.5L146 37L142.5 38.5L138.5 41L135 44L132 47.5L130.5 51.5V54.5H129L126 55.5L122.5 57.5L118 62L114.5 66.5L113 73L113.5 81L114.5 85.5L117 90L120.5 93L124.5 96L129 98L132 99H135H138.5L140.5 98H142.5L144 99V102L136.5 132.5L112 126L107.5 125L104.5 124L103.5 123.5L102.5 121L104.5 119L106.5 116L108.5 112V108V103.5L107.5 99L106.5 96L104.5 92L102.5 89L99 85.5L95.5 83.5L92.5 82.5H89H83.5L79.5 83.5L73.5 86.5L70 90L67 94.5L65 100.5V106V112L60.5 114.5L29 106L52.5 10L57 4L62.5 2Z" fill="#007AFF"/>
<path d="M62.5 2L162.5 27.5L160.5 37H158.5L154.5 35.5H150.5L146 37L142.5 38.5L138.5 41L135 44L132 47.5L130.5 51.5V54.5H129L126 55.5L122.5 57.5L118 62L114.5 66.5L113 73L113.5 81L114.5 85.5L117 90L120.5 93L124.5 96L129 98L132 99H135H138.5L140.5 98H142.5L144 99V102L136.5 132.5L112 126L107.5 125L104.5 124L103.5 123.5L102.5 121L104.5 119L106.5 116L108.5 112V108V103.5L107.5 99L106.5 96L104.5 92L102.5 89L99 85.5L95.5 83.5L92.5 82.5H89H83.5L79.5 83.5L73.5 86.5L70 90L67 94.5L65 100.5V106V112L60.5 114.5L29 106L52.5 10L57 4L62.5 2Z" stroke="#0B3D91" stroke-width="2"/>
</g>
<g filter="url(#filter2_d_19_2)">
<path d="M62.4588 111.201L29.8471 104.462L6.55294 193.563L5 197.307V201.05L6.55294 203.296L8.88235 206.291L11.9882 208.538L41.4941 214.528L111.376 231L117.588 203.296L118.365 201.05L117.588 199.553L116.035 198.804H105.941L102.059 197.307L98.1765 195.809L95.8471 193.563L92.7412 191.317L89.6353 188.322L88.0824 186.075L87.3059 183.08V180.085V176.342V174.095L88.0824 170.352L89.6353 167.357L91.1882 165.111L92.7412 162.864L94.2941 161.367L95.8471 159.121L98.1765 157.623L101.282 156.126L103.612 155.377H106.718H109.047H112.153L116.035 156.126L118.365 156.874L120.694 157.623L123.024 159.121L125.353 161.367H128.459L137 129.92L103.612 120.935V118.688L104.388 117.191L105.941 114.945L106.718 112.698L107.494 109.704L108.271 107.457V103.714V101.467L107.494 98.4724L106.718 95.4774L105.941 93.2312L104.388 90.9849L102.059 88.7387L99.7294 86.4925L96.6235 84.2462L92.7412 82.7487L89.6353 82H84.9765L81.8706 82.7487H78.7647L75.6588 84.2462L73.3294 86.4925L70.2235 89.4874L67.8941 91.7337L65.5647 95.4774L64.0118 98.4724V102.216V105.96V109.704L62.4588 111.201Z" fill="white"/>
<path d="M62.4588 111.201L29.8471 104.462L6.55294 193.563L5 197.307V201.05L6.55294 203.296L8.88235 206.291L11.9882 208.538L41.4941 214.528L111.376 231L117.588 203.296L118.365 201.05L117.588 199.553L116.035 198.804H105.941L102.059 197.307L98.1765 195.809L95.8471 193.563L92.7412 191.317L89.6353 188.322L88.0824 186.075L87.3059 183.08V180.085V176.342V174.095L88.0824 170.352L89.6353 167.357L91.1882 165.111L92.7412 162.864L94.2941 161.367L95.8471 159.121L98.1765 157.623L101.282 156.126L103.612 155.377H106.718H109.047H112.153L116.035 156.126L118.365 156.874L120.694 157.623L123.024 159.121L125.353 161.367H128.459L137 129.92L103.612 120.935V118.688L104.388 117.191L105.941 114.945L106.718 112.698L107.494 109.704L108.271 107.457V103.714V101.467L107.494 98.4724L106.718 95.4774L105.941 93.2312L104.388 90.9849L102.059 88.7387L99.7294 86.4925L96.6235 84.2462L92.7412 82.7487L89.6353 82H84.9765L81.8706 82.7487H78.7647L75.6588 84.2462L73.3294 86.4925L70.2235 89.4874L67.8941 91.7337L65.5647 95.4774L64.0118 98.4724V102.216V105.96V109.704L62.4588 111.201Z" stroke="#0B3D91" stroke-width="2"/>
</g>
<g filter="url(#filter3_d_19_2)">
<path d="M129.066 49.6278L127 55.1456V59.6602V64.6764L129.066 69.6926L131.649 73.2039L134.748 75.712L137.331 78.2201L141.464 80.2265L145.596 81.2298H151.278H154.894H157.477L159.543 82.7346V85.7443L151.278 115.34L183.821 122.864L184.854 124.369V127.379L182.788 130.388L179.689 134.401L178.656 137.913V143.43L179.689 148.447L180.722 152.46L182.788 156.473L184.854 158.479L187.954 160.485L192.603 163.997L197.768 165H202.417L206.033 163.997L211.715 162.492L215.848 160.485L218.43 158.479L221.013 155.469L223.596 151.456L224.629 146.942V135.405L226.179 134.401H229.278L259.238 141.926L277.318 71.699L281.45 54.1424L283 46.1165V41.1003V38.5922L281.45 36.0841L277.318 33.0744L178.656 10L175.556 22.5405L173.49 29.5631L170.907 37.0874L169.874 40.0971L168.325 42.6052H165.742L163.675 40.0971L161.609 38.5922L158.51 37.0874L155.927 36.0841H152.828H149.728L145.596 37.0874L141.464 38.5922L138.881 40.0971L134.748 42.6052L131.649 46.1165L129.066 49.6278Z" fill="#FC3D21"/>
<path d="M129.066 49.6278L127 55.1456V59.6602V64.6764L129.066 69.6926L131.649 73.2039L134.748 75.712L137.331 78.2201L141.464 80.2265L145.596 81.2298H151.278H154.894H157.477L159.543 82.7346V85.7443L151.278 115.34L183.821 122.864L184.854 124.369V127.379L182.788 130.388L179.689 134.401L178.656 137.913V143.43L179.689 148.447L180.722 152.46L182.788 156.473L184.854 158.479L187.954 160.485L192.603 163.997L197.768 165H202.417L206.033 163.997L211.715 162.492L215.848 160.485L218.43 158.479L221.013 155.469L223.596 151.456L224.629 146.942V135.405L226.179 134.401H229.278L259.238 141.926L277.318 71.699L281.45 54.1424L283 46.1165V41.1003V38.5922L281.45 36.0841L277.318 33.0744L178.656 10L175.556 22.5405L173.49 29.5631L170.907 37.0874L169.874 40.0971L168.325 42.6052H165.742L163.675 40.0971L161.609 38.5922L158.51 37.0874L155.927 36.0841H152.828H149.728L145.596 37.0874L141.464 38.5922L138.881 40.0971L134.748 42.6052L131.649 46.1165L129.066 49.6278Z" stroke="#0B3D91" stroke-width="2"/>
</g>
<defs>
<filter id="filter0_d_19_2" x="82" y="124.807" width="165.216" height="138.193" filterUnits="userSpaceOnUse" color-interpolation-filters="sRGB">
<feFlood flood-opacity="0" result="BackgroundImageFix"/>
<feColorMatrix in="SourceAlpha" type="matrix" values="0 0 0 0 0 0 0 0 0 0 0 0 0 0 0 0 0 0 127 0" result="hardAlpha"/>
<feOffset dy="4"/>
<feGaussianBlur stdDeviation="2"/>
<feComposite in2="hardAlpha" operator="out"/>
<feColorMatrix type="matrix" values="0 0 0 0 0 0 0 0 0 0 0 0 0 0 0 0 0 0 0.25 0"/>
<feBlend mode="normal" in2="BackgroundImageFix" result="effect1_dropShadow_19_2"/>
<feBlend mode="normal" in="SourceGraphic" in2="effect1_dropShadow_19_2" result="shape"/>
</filter>
<filter id="filter1_d_19_2" x="23.7964" y="0.954834" width="143.88" height="140.773" filterUnits="userSpaceOnUse" color-interpolation-filters="sRGB">
<feFlood flood-opacity="0" result="BackgroundImageFix"/>
<feColorMatrix in="SourceAlpha" type="matrix" values="0 0 0 0 0 0 0 0 0 0 0 0 0 0 0 0 0 0 127 0" result="hardAlpha"/>
<feOffset dy="4"/>
<feGaussianBlur stdDeviation="2"/>
<feComposite in2="hardAlpha" operator="out"/>
<feColorMatrix type="matrix" values="0 0 0 0 0 0 0 0 0 0 0 0 0 0 0 0 0 0 0.25 0"/>
<feBlend mode="normal" in2="BackgroundImageFix" result="effect1_dropShadow_19_2"/>
<feBlend mode="normal" in="SourceGraphic" in2="effect1_dropShadow_19_2" result="shape"/>
</filter>
<filter id="filter2_d_19_2" x="0" y="81" width="142.228" height="159.205" filterUnits="userSpaceOnUse" color-interpolation-filters="sRGB">
<feFlood flood-opacity="0" result="BackgroundImageFix"/>
<feColorMatrix in="SourceAlpha" type="matrix" values="0 0 0 0 0 0 0 0 0 0 0 0 0 0 0 0 0 0 127 0" result="hardAlpha"/>
<feOffset dy="4"/>
<feGaussianBlur stdDeviation="2"/>
<feComposite in2="hardAlpha" operator="out"/>
<feColorMatrix type="matrix" values="0 0 0 0 0 0 0 0 0 0 0 0 0 0 0 0 0 0 0.25 0"/>
<feBlend mode="normal" in2="BackgroundImageFix" result="effect1_dropShadow_19_2"/>
<feBlend mode="normal" in="SourceGraphic" in2="effect1_dropShadow_19_2" result="shape"/>
</filter>
<filter id="filter3_d_19_2" x="122" y="8.80127" width="166" height="165.199" filterUnits="userSpaceOnUse" color-interpolation-filters="sRGB">
<feFlood flood-opacity="0" result="BackgroundImageFix"/>
<feColorMatrix in="SourceAlpha" type="matrix" values="0 0 0 0 0 0 0 0 0 0 0 0 0 0 0 0 0 0 127 0" result="hardAlpha"/>
<feOffset dy="4"/>
<feGaussianBlur stdDeviation="2"/>
<feComposite in2="hardAlpha" operator="out"/>
<feColorMatrix type="matrix" values="0 0 0 0 0 0 0 0 0 0 0 0 0 0 0 0 0 0 0.25 0"/>
<feBlend mode="normal" in2="BackgroundImageFix" result="effect1_dropShadow_19_2"/>
<feBlend mode="normal" in="SourceGraphic" in2="effect1_dropShadow_19_2" result="shape"/>
</filter>
</defs>
</svg>
