<svg width="390" height="844" viewBox="0 0 390 844" fill="none" xmlns="http://www.w3.org/2000/svg">
<path d="M1 121.532C10 108.365 29.6 77.2316 36 58.0316C44 34.0316 70.5 6.03157 83 14.5316C95.5 23.0316 95 38.5316 65.5 80.0316C36 121.532 47.5 139.032 71.5 121.532C95.5 104.032 95 88.5316 128 101.532C161 114.532 169 117.032 179.5 87.5316C190 58.0316 190.5 13.5316 221.5 2.53157C252.5 -8.46843 265 2.53157 274.5 14.5316C284 26.5316 286 64.0316 251 80.0316C216 96.0315 191.5 121.031 195.5 145.031C199.5 169.031 206 175.031 256.5 180.031C307 185.031 265 253.531 282.5 269.531C300 285.531 346 318.531 361 300.531C376 282.531 366.5 229.031 357 204.531C347.5 180.031 328.5 134.032 334 101.532C339.5 69.0315 369 66.0315 376 47.0315C381.6 31.8315 381 13.6982 380 6.53149" stroke="#53D7B5"/>
<path d="M1 826.531C10.8333 825.365 30.2 818.431 29 800.031C27.5 777.031 7.5 735.031 29 717.531C50.5 700.031 54 724.531 78 709.531C102 694.531 127.5 687.531 131 709.531C134.5 731.531 157.5 746.031 100 792.031C92.6667 803.198 83.7 829.231 106.5 844.031" stroke="#53D7B5"/>
<path d="M126.5 839.532C141.667 831.865 173.8 808.132 181 774.532C190 732.532 185 665.532 194.5 641.532C204 617.532 232 601.032 256.5 612.032C281 623.032 280.5 654.531 276 695.031C271.5 735.531 294 790.531 310 782.531C313.5 783.365 321.6 782.932 326 774.532C331.5 764.031 355 748.031 367.5 782.531C377.5 810.131 390 836.365 395 846.031" stroke="#53D7B5"/>
<path d="M-5 227.531C0.833333 229.865 14.2 232.031 21 222.031C29.5 209.531 48 193.531 63 222.031C78 250.531 106 277.531 90.5 304.531C75 331.531 58.5 351.531 21 328.031C14 320.531 -1 302.631 -5 291.031M391 357.031C381.5 369.531 364.7 399.231 373.5 418.031C382.3 436.831 392.167 441.198 396 441.031" stroke="#53D7B5"/>
<path d="M395 506.532C388.167 514.865 371.8 529.032 361 519.032C347.5 506.532 343 493.532 340.5 461.532C338 429.532 341 378.032 311 374.032C303.5 373.865 289 381.132 291 411.532C293.5 449.532 266.5 424.031 255.5 447.031C244.5 470.031 237 503.532 299 519.032C311.333 519.198 335.4 529.031 333 567.031C330 614.531 386 602.531 390.5 587.531" stroke="#53D7B5"/>
<path d="M-3.5 501.031C5.33333 501.198 24.2 505.231 29 520.031C35 538.531 56 572.531 77 532.031C98 491.531 101.5 460.531 125.5 468.531C149.5 476.531 179.5 512.531 170 532.031C160.5 551.531 144.5 547.531 135 559.531C125.5 571.531 115 608.531 111.5 624.531C108 640.531 85.5 652.031 69.5 635.531C53.5 619.031 12.5 611.531 -3.5 649.031" stroke="#53D7B5"/>
</svg>
