<svg width="38" height="41" viewBox="0 0 38 41" fill="none" xmlns="http://www.w3.org/2000/svg">
<path d="M30.6584 23.8951L16.6149 32.6433C13.9505 34.303 10.5 32.3872 10.5 29.2481L10.5 11.7519C10.5 8.61282 13.9505 6.69701 16.6149 8.35674L30.6584 17.1049C33.1718 18.6705 33.1718 22.3295 30.6584 23.8951Z" fill="#FC3D21" stroke="#092D69" stroke-width="2"/>
<path d="M30.2913 16.2936C31.5671 17.0735 31.5671 18.9265 30.2913 19.7064L13.5432 29.9448C12.2104 30.7595 10.5 29.8004 10.5 28.2384L10.5 7.76163C10.5 6.19964 12.2104 5.24052 13.5431 6.05522L30.2913 16.2936Z" fill="#007AFF" stroke="#092D69" stroke-width="2"/>
<path d="M14 10L27 18" stroke="white" stroke-width="2" stroke-linecap="round"/>
<path d="M24 20L19 23" stroke="white" stroke-width="2" stroke-linecap="round"/>
</svg>
